<svg xmlns="http://www.w3.org/2000/svg" fill="none" viewBox="38.0 5.0 124.54 60.0" width="455.2883145795778" height="219.64104238506974">
<path d="M46.7234 46.2058L46.0851 49.1372C45.3759 48.759 44.7376 48.6881 44.2884 48.6881C42.2553 48.6881 41.1206 50.7212 41.1206 54.22V58.5699H38V46.0876H41.0969V48.759C41.7589 46.6786 43.13 45.7803 44.6903 45.7803C45.4232 45.7803 46.227 45.9221 46.7234 46.2058Z" fill="black"/>
<path fill-rule="evenodd" clip-rule="evenodd" d="M46.7943 52.3287C46.7943 48.3807 49.8676 45.7803 53.4137 45.7803C56.9598 45.7803 60.0567 48.3807 60.0567 52.3287C60.0567 56.2767 56.9598 58.9008 53.4137 58.9008C49.8676 58.9008 46.7943 56.2767 46.7943 52.3287ZM56.9362 52.3287C56.9362 50.1774 55.3286 48.6644 53.4137 48.6644C51.4988 48.6644 49.9149 50.1774 49.9149 52.3287C49.9149 54.4564 51.4752 56.0167 53.4137 56.0167C55.3286 56.0167 56.9362 54.5037 56.9362 52.3287Z" fill="black"/>
<path d="M70.6242 46.1115H73.7211V58.5702H70.6242V56.6316C69.9859 58.1919 68 58.9011 66.7471 58.9011C63.532 58.9011 61.7589 56.7262 61.7589 53.1092V46.1115H64.8558V52.9673C64.8558 54.9768 66.0615 56.017 67.4327 56.017C68.8275 56.017 70.6242 55.2132 70.6242 52.7782V46.0879V46.1115Z" fill="black"/>
<path d="M88.3073 51.5722V58.5699H85.1868V51.785C85.1868 49.7755 84.0047 48.7117 82.61 48.7117C81.2152 48.7117 79.4185 49.5391 79.4185 51.9505V58.5699H76.3215V46.1112H79.4185V48.0734C80.0568 46.4895 82.0189 45.7803 83.2955 45.7803C86.5107 45.7803 88.3073 47.9552 88.3073 51.5722Z" fill="black"/>
<path fill-rule="evenodd" clip-rule="evenodd" d="M100.293 39.3262H103.39V58.5697H100.293V56.9148C99.4421 58.2387 97.6691 58.9006 96.1561 58.9006C92.87 58.9006 90.0095 56.3002 90.0095 52.3285C90.0095 48.3569 92.8464 45.7801 96.1325 45.7801C97.6927 45.7801 99.4421 46.4184 100.293 47.7422V39.3262ZM100.246 52.3049C100.246 50.1063 98.4256 48.6642 96.6289 48.6642C94.714 48.6642 93.1301 50.2245 93.1301 52.3049C93.1301 54.3853 94.714 56.0165 96.6289 56.0165C98.5674 56.0165 100.246 54.5035 100.246 52.3049Z" fill="black"/>
<path fill-rule="evenodd" clip-rule="evenodd" d="M115.541 46.1112H118.638V56.9387C118.638 62.5651 115.92 65.0001 111.641 65.0001C109.087 65.0001 106.842 63.6053 105.731 61.3595L108.307 60.1774C108.922 61.3831 110.27 62.1869 111.641 62.1869C114.052 62.1869 115.541 60.8157 115.541 57.246V56.9387C114.667 58.2389 112.917 58.9008 111.404 58.9008C108.118 58.9008 105.258 56.3004 105.258 52.3287C105.258 48.3571 108.095 45.7803 111.381 45.7803C112.988 45.7803 114.667 46.4422 115.541 47.7424V46.1112ZM115.494 52.3051C115.494 50.1065 113.674 48.6644 111.877 48.6644C109.962 48.6644 108.378 50.2247 108.378 52.3051C108.378 54.3855 109.962 56.0167 111.877 56.0167C113.816 56.0167 115.494 54.5037 115.494 52.3051Z" fill="black"/>
<path d="M121.262 58.5697V39.3262H124.359V58.5697H121.262Z" fill="black"/>
<path fill-rule="evenodd" clip-rule="evenodd" d="M136.511 46.1112H139.608V58.5699H136.511V56.6313C135.683 57.9789 134.028 58.9008 132.232 58.9008C128.898 58.9008 126.227 56.2058 126.227 52.3287C126.227 48.4517 128.78 45.7803 132.326 45.7803C134.028 45.7803 135.683 46.5368 136.511 47.837V46.1112ZM136.463 52.3287C136.463 50.2011 134.69 48.6881 132.846 48.6881C130.837 48.6881 129.324 50.3429 129.324 52.3287C129.324 54.3382 130.837 56.0167 132.87 56.0167C134.808 56.0167 136.463 54.4091 136.463 52.3287Z" fill="black"/>
<path d="M141.357 54.7401H144.288C144.288 55.5911 145.021 56.3949 146.345 56.3949C147.574 56.3949 148.378 55.7566 148.378 54.9765C148.378 54.2673 147.834 53.9599 146.889 53.7472L145.234 53.3216C142.444 52.5651 141.712 51.0758 141.712 49.4919C141.712 47.5533 143.65 45.7803 146.369 45.7803C148.591 45.7803 151.097 46.915 151.073 49.681H148.118C148.118 48.8299 147.338 48.2862 146.463 48.2862C145.494 48.2862 144.832 48.8536 144.832 49.6337C144.832 50.272 145.447 50.6502 146.156 50.8157L148.165 51.3358C150.955 52.0687 151.475 53.8181 151.475 54.9765C151.475 57.506 148.946 58.9008 146.416 58.9008C143.863 58.9008 141.428 57.4115 141.381 54.7401H141.357Z" fill="black"/>
<path d="M152.421 54.7401H155.352C155.352 55.5911 156.085 56.3949 157.409 56.3949C158.638 56.3949 159.418 55.7566 159.418 54.9765C159.418 54.2673 158.898 53.9599 157.953 53.7472L156.298 53.3216C153.508 52.5651 152.775 51.0758 152.775 49.4919C152.775 47.5533 154.714 45.7803 157.433 45.7803C159.655 45.7803 162.161 46.915 162.137 49.681H159.182C159.182 48.8299 158.402 48.2862 157.527 48.2862C156.558 48.2862 155.896 48.8536 155.896 49.6337C155.896 50.272 156.511 50.6502 157.22 50.8157L159.229 51.3358C162.019 52.0687 162.539 53.8181 162.539 54.9765C162.539 57.506 160.009 58.9008 157.456 58.9008C154.927 58.9008 152.492 57.4115 152.444 54.7401H152.421Z" fill="black"/>
<path d="M109.229 25.4491C110.6 25.4491 111.735 24.338 111.735 22.9668C111.735 21.572 110.6 20.4609 109.229 20.4609C107.858 20.4609 106.747 21.572 106.747 22.9668C106.747 24.338 107.858 25.4491 109.229 25.4491Z" fill="#F15627"/>
<path d="M101.546 32.4232C102.799 32.4232 103.792 31.4303 103.792 30.1773C103.792 28.948 102.799 27.9551 101.546 27.9551C100.317 27.9551 99.3239 28.948 99.3239 30.1773C99.3239 31.4303 100.317 32.4232 101.546 32.4232Z" fill="#F15627"/>
<path d="M90.5768 27.4819C92.0898 27.4819 93.3191 26.2526 93.3191 24.7159C93.3191 23.2029 92.0898 21.9736 90.5768 21.9736C89.0638 21.9736 87.8345 23.2029 87.8345 24.7159C87.8345 26.2526 89.0638 27.4819 90.5768 27.4819Z" fill="#F15627"/>
<path d="M90.3167 21.3826C91.6406 21.3826 92.7044 20.3188 92.7044 18.9949C92.7044 17.6947 91.6406 16.6309 90.3167 16.6309C89.0165 16.6309 87.9526 17.6947 87.9526 18.9949C87.9526 20.3188 89.0165 21.3826 90.3167 21.3826Z" fill="#F15627"/>
<path d="M104.336 29.1131C105.47 29.1131 106.369 28.1911 106.369 27.08C106.369 25.9689 105.47 25.0469 104.336 25.0469C103.225 25.0469 102.326 25.9689 102.326 27.08C102.326 28.1911 103.225 29.1131 104.336 29.1131Z" fill="#F15627"/>
<path d="M108.024 17.8604C108.567 17.8604 108.993 17.4112 108.993 16.8911C108.993 16.3474 108.567 15.9219 108.024 15.9219C107.503 15.9219 107.054 16.3474 107.054 16.8911C107.054 17.4112 107.503 17.8604 108.024 17.8604Z" fill="#F15627"/>
<path d="M107.054 11.3832C108.165 11.3832 109.087 10.4848 109.087 9.37371C109.087 8.2626 108.165 7.36426 107.054 7.36426C105.943 7.36426 105.045 8.2626 105.045 9.37371C105.045 10.4848 105.943 11.3832 107.054 11.3832Z" fill="#F15627"/>
<path d="M103.792 12.3757C104.69 12.3757 105.423 11.6428 105.423 10.7445C105.423 9.84614 104.69 9.11328 103.792 9.11328C102.894 9.11328 102.161 9.84614 102.161 10.7445C102.161 11.6428 102.894 12.3757 103.792 12.3757Z" fill="#F15627"/>
<path d="M107.811 29.9643C108.804 29.9643 109.607 29.1605 109.607 28.1912C109.607 27.1983 108.804 26.3945 107.811 26.3945C106.842 26.3945 106.038 27.1983 106.038 28.1912C106.038 29.1605 106.842 29.9643 107.811 29.9643Z" fill="#F15627"/>
<path d="M98.8983 32.4706C99.442 32.4706 99.8675 32.045 99.8675 31.5249C99.8675 31.0048 99.442 30.5557 98.8983 30.5557C98.3782 30.5557 97.9526 31.0048 97.9526 31.5249C97.9526 32.045 98.3782 32.4706 98.8983 32.4706Z" fill="#F15627"/>
<path d="M96.6761 32.1393C97.5508 32.1393 98.2364 31.4301 98.2364 30.5554C98.2364 29.7043 97.5508 28.9951 96.6761 28.9951C95.8014 28.9951 95.0922 29.7043 95.0922 30.5554C95.0922 31.4301 95.8014 32.1393 96.6761 32.1393Z" fill="#F15627"/>
<path d="M94.5957 25.5914C95.0449 25.5914 95.4232 25.2131 95.4232 24.7639C95.4232 24.3148 95.0449 23.9365 94.5957 23.9365C94.1229 23.9365 93.7683 24.3148 93.7683 24.7639C93.7683 25.2131 94.1229 25.5914 94.5957 25.5914Z" fill="#F15627"/>
<path d="M87.6453 23.3686C88.3073 23.3686 88.851 22.8248 88.851 22.1629C88.851 21.4773 88.3073 20.9336 87.6453 20.9336C86.9598 20.9336 86.416 21.4773 86.416 22.1629C86.416 22.8248 86.9598 23.3686 87.6453 23.3686Z" fill="#F15627"/>
<path d="M101.026 10.2246C102.468 10.2246 103.626 9.04255 103.626 7.62411C103.626 6.18203 102.468 5 101.026 5C99.5838 5 98.4254 6.18203 98.4254 7.62411C98.4254 9.04255 99.5838 10.2246 101.026 10.2246Z" fill="#F15627"/>
<path d="M104.336 7.459C104.856 7.459 105.258 7.03347 105.258 6.53702C105.258 6.04056 104.856 5.63867 104.336 5.63867C103.839 5.63867 103.437 6.04056 103.437 6.53702C103.437 7.03347 103.839 7.459 104.336 7.459Z" fill="#F15627"/>
<path d="M94.1938 13.676C95.2104 13.676 96.0142 12.8722 96.0142 11.8557C96.0142 10.8391 95.2104 10.0117 94.1938 10.0117C93.1773 10.0117 92.3499 10.8391 92.3499 11.8557C92.3499 12.8722 93.1773 13.676 94.1938 13.676Z" fill="#F15627"/>
<path d="M92.4917 22.754C92.9408 22.754 93.2954 22.3994 93.2954 21.9503C93.2954 21.5011 92.9408 21.1465 92.4917 21.1465C92.0425 21.1465 91.6879 21.5011 91.6879 21.9503C91.6879 22.3994 92.0425 22.754 92.4917 22.754Z" fill="#F15627"/>
<path d="M110.435 11.549C110.884 11.549 111.239 11.1944 111.239 10.7452C111.239 10.3197 110.884 9.94141 110.435 9.94141C109.986 9.94141 109.631 10.3197 109.631 10.7452C109.631 11.1944 109.986 11.549 110.435 11.549Z" fill="#F15627"/>
<path d="M99.442 11.5483C99.9621 11.5483 100.364 11.1464 100.364 10.6263C100.364 10.1062 99.9621 9.68066 99.442 9.68066C98.9219 9.68066 98.4963 10.1062 98.4963 10.6263C98.4963 11.1464 98.9219 11.5483 99.442 11.5483Z" fill="#F15627"/>
<path d="M97.007 12.0682C97.6926 12.0682 98.26 11.5245 98.26 10.8389C98.26 10.1533 97.6926 9.58594 97.007 9.58594C96.3214 9.58594 95.7777 10.1533 95.7777 10.8389C95.7777 11.5245 96.3214 12.0682 97.007 12.0682Z" fill="#F15627"/>
<path d="M108.118 20.7921C108.686 20.7921 109.135 20.3429 109.135 19.7755C109.135 19.1845 108.686 18.7354 108.118 18.7354C107.551 18.7354 107.078 19.1845 107.078 19.7755C107.078 20.3429 107.551 20.7921 108.118 20.7921Z" fill="#F15627"/>
<path d="M105.73 25.4961C106.203 25.4961 106.582 25.1178 106.582 24.645C106.582 24.1722 106.203 23.7939 105.73 23.7939C105.258 23.7939 104.879 24.1722 104.879 24.645C104.879 25.1178 105.258 25.4961 105.73 25.4961Z" fill="#F15627"/>
<path d="M90.5767 10.4134C91.0259 10.4134 91.4042 10.0588 91.4042 9.60965C91.4042 9.16048 91.0259 8.78223 90.5767 8.78223C90.1276 8.78223 89.7729 9.16048 89.7729 9.60965C89.7729 10.0588 90.1276 10.4134 90.5767 10.4134Z" fill="#F15627"/>
<path d="M92.1844 10.0824C92.6335 10.0824 92.9881 9.72777 92.9881 9.2786C92.9881 8.82942 92.6335 8.45117 92.1844 8.45117C91.7352 8.45117 91.3569 8.82942 91.3569 9.2786C91.3569 9.72777 91.7352 10.0824 92.1844 10.0824Z" fill="#F15627"/>
<path d="M87.2434 19.9173C87.6926 19.9173 88.0472 19.5627 88.0472 19.1136C88.0472 18.6644 87.6926 18.2861 87.2434 18.2861C86.7943 18.2861 86.416 18.6644 86.416 19.1136C86.416 19.5627 86.7943 19.9173 87.2434 19.9173Z" fill="#F15627"/>
<path d="M112.563 22.3287C113.319 22.3287 113.957 21.714 113.957 20.9339C113.957 20.1537 113.319 19.5391 112.563 19.5391C111.782 19.5391 111.144 20.1537 111.144 20.9339C111.144 21.714 111.782 22.3287 112.563 22.3287Z" fill="#F15627"/>
<path d="M97.6926 7.62424C98.3546 7.62424 98.8983 7.0805 98.8983 6.41856C98.8983 5.75663 98.3546 5.21289 97.6926 5.21289C97.0307 5.21289 96.4869 5.75663 96.4869 6.41856C96.4869 7.0805 97.0307 7.62424 97.6926 7.62424Z" fill="#F15627"/>
<path d="M93.3427 30.6739C94.0283 30.6739 94.5956 30.1301 94.5956 29.4209C94.5956 28.7353 94.0283 28.168 93.3427 28.168C92.6571 28.168 92.0897 28.7353 92.0897 29.4209C92.0897 30.1301 92.6571 30.6739 93.3427 30.6739Z" fill="#F15627"/>
<path d="M104.572 31.7846C105.092 31.7846 105.518 31.3591 105.518 30.839C105.518 30.3189 105.092 29.917 104.572 29.917C104.076 29.917 103.65 30.3189 103.65 30.839C103.65 31.3591 104.076 31.7846 104.572 31.7846Z" fill="#F15627"/>
<path d="M111.05 13.2983C111.57 13.2983 111.972 12.8727 111.972 12.3527C111.972 11.8562 111.57 11.4307 111.05 11.4307C110.529 11.4307 110.128 11.8562 110.128 12.3527C110.128 12.8727 110.529 13.2983 111.05 13.2983Z" fill="#F15627"/>
<path d="M108.024 15.9457C109.347 15.9457 110.435 14.8583 110.435 13.5344C110.435 12.2105 109.347 11.123 108.024 11.123C106.7 11.123 105.612 12.2105 105.612 13.5344C105.612 14.8583 106.7 15.9457 108.024 15.9457Z" fill="#F15627"/>
<path d="M95.0922 9.70438C96.1324 9.70438 96.9834 8.87696 96.9834 7.81313C96.9834 6.77294 96.1324 5.92188 95.0922 5.92188C94.0284 5.92188 93.2009 6.77294 93.2009 7.81313C93.2009 8.87696 94.0284 9.70438 95.0922 9.70438Z" fill="#F15627"/>
<path d="M90.3167 14.6925C91.5224 14.6925 92.4916 13.7232 92.4916 12.5412C92.4916 11.3355 91.5224 10.3662 90.3167 10.3662C89.1347 10.3662 88.1654 11.3355 88.1654 12.5412C88.1654 13.7232 89.1347 14.6925 90.3167 14.6925Z" fill="#F15627"/>
<path d="M88.1654 17.3402C89.0874 17.3402 89.8203 16.6073 89.8203 15.6853C89.8203 14.7633 89.0874 14.0068 88.1654 14.0068C87.2434 14.0068 86.4869 14.7633 86.4869 15.6853C86.4869 16.6073 87.2434 17.3402 88.1654 17.3402Z" fill="#F15627"/>
<path d="M97.007 27.9555C97.4325 27.0098 96.9834 25.8987 96.0377 25.4968C95.0921 25.0949 93.981 25.5205 93.5791 26.4661C93.1772 27.4117 93.6028 28.5228 94.5484 28.9247C95.494 29.3503 96.6051 28.9011 97.007 27.9555Z" fill="#F15627"/>
<path d="M91.6878 28.4989C91.877 28.0733 91.6878 27.5769 91.2623 27.3878C90.8368 27.1986 90.3403 27.3878 90.1512 27.8133C89.9621 28.2388 90.1512 28.7353 90.5767 28.9244C91.0023 29.1135 91.4987 28.9244 91.6878 28.4989Z" fill="#F15627"/>
<path d="M93.461 15.7801C93.721 15.1655 93.4373 14.4563 92.8227 14.1726C92.208 13.9125 91.4988 14.1962 91.2387 14.8109C90.9787 15.4255 91.2624 16.1348 91.877 16.3948C92.4917 16.6785 93.2009 16.3948 93.461 15.7801Z" fill="#F15627"/>
<path d="M111.451 26.8201C111.711 26.2291 111.428 25.5672 110.86 25.3071C110.269 25.0471 109.584 25.3308 109.347 25.8982C109.087 26.4892 109.347 27.1511 109.938 27.4112C110.529 27.6712 111.191 27.3875 111.451 26.8201Z" fill="#F15627"/>
<path d="M113.91 18.1911C114.454 16.9382 113.863 15.4961 112.634 14.9524C111.381 14.4086 109.938 14.976 109.395 16.229C108.851 17.4819 109.418 18.924 110.671 19.4677C111.924 19.9878 113.366 19.4205 113.91 18.1911Z" fill="#F15627"/>
<path d="M100.293 28.1442C100.577 27.435 100.269 26.6076 99.5602 26.3239C98.851 26.0166 98.0236 26.3239 97.7162 27.0331C97.4089 27.7423 97.7399 28.5697 98.4491 28.8771C99.1583 29.1844 99.9857 28.8534 100.293 28.1442Z" fill="#F15627"/>
</svg>